<?xml version="1.0" standalone="no"?>
<!DOCTYPE svg PUBLIC "-//W3C//DTD SVG 1.1//EN" "http://www.w3.org/Graphics/SVG/1.1/DTD/svg11.dtd" >
<svg xmlns="http://www.w3.org/2000/svg" xmlns:xlink="http://www.w3.org/1999/xlink" version="1.1">
<metadata>
Created by FontForge 20170731 at Thu May 12 00:00:42 2016
 By Aleksey,,,
</metadata>
<defs>
<font id="icomoon" horiz-adv-x="1024" >
  <font-face 
    font-family="icomoon"
    font-weight="400"
    font-stretch="normal"
    units-per-em="1024"
    panose-1="0 0 0 0 0 0 0 0 0 0"
    ascent="960"
    descent="-64"
    bbox="29 -34 996 934"
    underline-thickness="0"
    underline-position="0"
    unicode-range="U+0001-FFFD"
  />
<missing-glyph 
 />
    <glyph glyph-name=".notdef" unicode="&#xfffd;" 
 />
    <glyph glyph-name="glyph1" horiz-adv-x="0" 
d="M0 0v0v0v0z" />
    <glyph glyph-name="glyph1" horiz-adv-x="0" 
d="M0 0v0v0v0z" />
    <glyph glyph-name="nonmarkingreturn" horiz-adv-x="341" 
 />
    <glyph glyph-name="uni0001" horiz-adv-x="0" 
d="M0 0v0v0v0z" />
    <glyph glyph-name="space" unicode=" " horiz-adv-x="512" 
d="M0 0v0v0v0z" />
    <glyph glyph-name="uniE600" unicode="&#xe600;" 
d="M690 463h-293l91 91l-21 21l-127 -126l127 -127l21 21l-91 91h293v29zM515 -27q-99 0 -186 37.5t-152 102.5t-102.5 151.5t-37.5 185.5t38 186t102.5 151.5t151.5 102t186 37.5q98 0 185 -37.5t151.5 -102t102.5 -151.5t38 -186t-37.5 -185.5t-102.5 -151.5t-152 -102.5
t-185 -37.5zM515 894q-92 0 -173 -34.5t-141.5 -95t-95.5 -141.5t-35 -173t35 -173t95.5 -141t141.5 -95t173 -35t172.5 35t141 95t95.5 141t35 173t-35 173t-95.5 141.5t-141 95t-172.5 34.5v0z" />
    <glyph glyph-name="uniE601" unicode="&#xe601;" 
d="M333 437h292l-91 -91l21 -21l127 127l-127 127l-21 -21l91 -92h-292v-29zM512 -27q-99 0 -185.5 37.5t-151.5 102.5t-102.5 151.5t-37.5 185.5t37.5 186t102.5 151.5t151.5 102t185.5 37.5t185.5 -37.5t151.5 -102t102.5 -151.5t37.5 -186t-37.5 -185.5t-102.5 -151.5
t-151.5 -102.5t-185.5 -37.5v0zM512 894q-92 0 -173 -34.5t-141.5 -95t-95 -141.5t-34.5 -173t34.5 -173t95 -141t141.5 -95t173 -35t173 35t141.5 95t95 141t34.5 173t-34.5 173t-95 141.5t-141.5 95t-173 34.5v0z" />
    <glyph glyph-name="uniE602" unicode="&#xe602;" 
d="M524 271v293l91 -91l21 21l-127 127l-127 -127l21 -21l92 91v-293h29zM512 -27q-99 0 -185.5 37.5t-151.5 102.5t-102.5 151.5t-37.5 185.5t37.5 186t102.5 151.5t151.5 102t185.5 37.5t185.5 -37.5t151.5 -102t102.5 -151.5t37.5 -186t-37.5 -185.5t-102.5 -151.5
t-151.5 -102.5t-185.5 -37.5v0zM512 894q-92 0 -173 -34.5t-141.5 -95t-95 -141.5t-34.5 -173t34.5 -173t95 -141t141.5 -95t173 -35t173 35t141.5 95t95 141t34.5 173t-34.5 173t-95 141.5t-141.5 95t-173 34.5v0z" />
    <glyph glyph-name="uniE603" unicode="&#xe603;" 
d="M498 628v-292l-91 91l-21 -21l127 -127l126 127l-21 21l-91 -91v292h-29zM513 -27q-99 0 -186 37.5t-152 102.5t-102.5 151.5t-37.5 185.5t37.5 186t102.5 151.5t152 102t186 37.5q98 0 185 -37.5t152 -102t102.5 -151.5t37.5 -186t-37.5 -185.5t-102.5 -151.5
t-152 -102.5t-185 -37.5zM513 894q-92 0 -173 -34.5t-141.5 -95t-95.5 -141.5t-35 -173t35 -173t95.5 -141t141.5 -95t173 -35q91 0 172 35t141.5 95t95.5 141t35 173t-35 173t-95.5 141.5t-141.5 95t-172 34.5v0z" />
    <glyph glyph-name="uniE604" unicode="&#xe604;" 
d="M640 598h-18v37h-37v-37h-148v37h-37v-37h-18q-15 0 -26 -10.5t-11 -26.5v-258q0 -15 11 -26t26 -11h258q15 0 26 11t11 26v258q0 16 -11 26.5t-26 10.5zM511 543q23 0 39 -16.5t16 -39.5t-16 -39t-39 -16t-39 16t-16 39t16 39.5t39 16.5v0zM622 322h-222v18
q0 28 41.5 42.5t69.5 14.5t69.5 -14.5t41.5 -42.5v-9v-9zM511 -27q-99 0 -186 37.5t-151.5 102.5t-102 151.5t-37.5 185.5t37.5 186t102 151.5t151.5 102t186 37.5t185.5 -37.5t151.5 -102t102.5 -151.5t37.5 -186t-37.5 -185.5t-102.5 -151.5t-151.5 -102.5t-185.5 -37.5v0
zM511 894q-92 0 -173 -35t-141 -95t-95 -141t-35 -173t34.5 -173t95 -141t141.5 -95t173 -35t173 35t141 95t95 141t35 173t-35 173t-95 141t-141 95t-173 35v0z" />
    <glyph glyph-name="uniE605" unicode="&#xe605;" 
d="M673 515l-158 -99l-159 99v40l159 -99l158 99v-40v0zM673 594h-317q-17 0 -28.5 -11.5t-11.5 -28.5v-238q0 -16 12 -28t28 -12h318q16 0 28 12t12 28v239q-1 16 -12.5 27.5t-28.5 11.5zM512 -27q-99 0 -185.5 37.5t-151.5 102.5t-102.5 151.5t-37.5 185.5t37.5 186
t102.5 151.5t151.5 102t185.5 37.5t185.5 -37.5t151.5 -102t102.5 -151.5t37.5 -186t-37.5 -185.5t-102.5 -151.5t-151.5 -102.5t-185.5 -37.5v0zM512 894q-92 0 -173 -34.5t-141.5 -95t-95 -141.5t-34.5 -173t34.5 -173t95 -141t141.5 -95t173 -35t173 35t141.5 95t95 141
t34.5 173t-34.5 173t-95 141.5t-141.5 95t-173 34.5v0z" />
    <glyph glyph-name="uniE606" unicode="&#xe606;" 
d="M405 460q21 -42 55 -75.5t76 -55.5l44 44q4 4 9.5 5t10.5 -1q16 -5 34 -8t36 -3q8 0 14 -5.5t6 -14.5v-69q0 -8 -5.5 -14t-14.5 -6q-70 0 -131.5 26.5t-107 72.5t-72 107.5t-26.5 130.5q0 8 5.5 14t14.5 6h69q8 0 14 -5.5t6 -14.5q0 -18 3 -36t9 -34q1 -6 0 -11t-5 -9
l-44 -44v0zM512 -27q-99 0 -185.5 37.5t-151.5 102.5t-102.5 151.5t-37.5 185.5t37.5 186t102.5 151.5t151.5 102t185.5 37.5t185.5 -37.5t151.5 -102t102.5 -151.5t37.5 -186t-37.5 -185.5t-102.5 -151.5t-151.5 -102.5t-185.5 -37.5v0zM512 894q-92 0 -173 -34.5
t-141.5 -95t-95 -141.5t-34.5 -173t34.5 -173t95 -141t141.5 -95t173 -35t173 35t141.5 95t95 141t34.5 173t-34.5 173t-95 141.5t-141.5 95t-173 34.5v0z" />
    <glyph glyph-name="uniE607" unicode="&#xe607;" 
d="M429 308l228 138l-228 139v-277zM511 -27q-99 0 -186 37.5t-151.5 102.5t-102 151.5t-37.5 185.5t37.5 186t102 151.5t151.5 102t186 37.5t185.5 -37.5t151.5 -102t102.5 -151.5t37.5 -186t-37.5 -185.5t-102.5 -151.5t-151.5 -102.5t-185.5 -37.5v0zM511 894
q-92 0 -173 -35t-141 -95t-95 -141t-35 -173t34.5 -173t95 -141t141.5 -95t173 -35t173 35t141 95t95 141t35 173t-35 173t-95 141t-141 95t-173 35v0z" />
    <glyph glyph-name="uniE608" unicode="&#xe608;" 
d="M660 585h-289q-13 0 -22.5 -9.5t-9.5 -22.5v-192q0 -13 9.5 -22.5t22.5 -9.5h112v-33h-32v-32h128v32h-32v33h112q13 0 22.5 9.5t9.5 22.5v192q1 13 -8.5 22.5t-22.5 9.5zM660 361h-289v192h288v-192h1zM511 -27q-99 0 -186 37.5t-151.5 102.5t-102 151.5t-37.5 185.5
t37.5 186t102 151.5t151.5 102t186 37.5t185.5 -37.5t151.5 -102t102.5 -151.5t37.5 -186t-37.5 -185.5t-102.5 -151.5t-151.5 -102.5t-185.5 -37.5v0zM511 894q-92 0 -173 -35t-141 -95t-95 -141t-35 -173t34.5 -173t95 -141t141.5 -95t173 -35t173 35t141 95t95 141
t35 173t-35 173t-95 141t-141 95t-173 35v0z" />
    <glyph glyph-name="uniE609" unicode="&#xe609;" 
d="M645 799h-394v-707h527v565l-133 142v0zM654 743l72 -76h-72v76zM283 124v644h340v-133h124v-511h-464v0zM364 246h312v-32h-312v32zM364 341h312v-32h-312v32zM364 530h312v-32h-312v32zM364 435h312v-32h-312v32z" />
    <glyph glyph-name="uniE60A" unicode="&#xe60a;" 
d="M537 615q-49 -2 -63.5 -25t-15.5 -51v0v-34h-44v-65h44v-175h66v175h54l10 65h-64v20q0 10 5.5 16.5t14.5 6.5h45v67h-52v0zM513 -27q-99 0 -186 37.5t-152 102.5t-102.5 151.5t-37.5 185.5t37.5 186t102.5 151.5t152 102t186 37.5q98 0 185 -37.5t152 -102t102.5 -151.5
t37.5 -186t-37.5 -185.5t-102.5 -151.5t-152 -102.5t-185 -37.5zM513 894q-92 0 -173 -34.5t-141.5 -95t-95.5 -141.5t-35 -173t35 -173t95.5 -141t141.5 -95t173 -35q91 0 172 35t141.5 95t95.5 141t35 173t-35 173t-95.5 141.5t-141.5 95t-172 34.5v0z" />
    <glyph glyph-name="uniE60B" unicode="&#xe60b;" 
d="M513 -27q-99 0 -186 37.5t-152 102.5t-102.5 151.5t-37.5 185.5t37.5 186t102.5 151.5t152 102t186 37.5q98 0 185 -37.5t152 -102t102.5 -151.5t37.5 -186t-37.5 -185.5t-102.5 -151.5t-152 -102.5t-185 -37.5zM513 894q-92 0 -173 -34.5t-141.5 -95t-95.5 -141.5
t-35 -173t35 -173t95.5 -141t141.5 -95t173 -35q91 0 172 35t141.5 95t95.5 141t35 173t-35 173t-95.5 141.5t-141.5 95t-172 34.5v0zM293 453q1 62 49.5 108t109.5 44q30 1 57 -10.5t50 -29.5q-10 -11 -20 -21.5t-21 -20.5q-27 19 -61.5 22t-62.5 -18q-39 -27 -40 -79
t36 -81q37 -33 90.5 -19t63.5 64q-22 1 -45 0.5t-46 0.5v27.5v26.5h76h76q2 -31 -3.5 -63.5t-24.5 -59.5q-30 -42 -83 -54t-99 6q-47 18 -76.5 62t-25.5 95v0zM705 514h22.5h22.5v-22.5t1 -23.5h22.5h22.5v-22.5v-23.5h-22.5h-22.5q0 -12 -0.5 -23t-0.5 -23h-22.5h-22.5
q0 12 -0.5 23t-0.5 23h-23h-23v23v23h23h23q0 12 0.5 23.5t0.5 22.5z" />
    <glyph glyph-name="uniE60C" unicode="&#xe60c;" 
d="M688 570q-8 -5 -22.5 -10.5t-23.5 -5.5v0q-10 11 -24 17t-30 6q-31 0 -52.5 -21.5t-21.5 -52.5v-8.5t2 -8.5v0q-42 1 -86 21t-72 56q-16 -29 -6 -57.5t29 -40.5q-7 0 -17 1.5t-15 6.5q-1 -19 11 -41t46 -32q-7 -3 -16.5 -3t-14.5 1q2 -17 22 -33.5t45 -16.5
q-9 -11 -37 -24t-66 -7q26 -16 55 -24.5t61 -8.5q45 0 84 17t67 46.5t43.5 69t13.5 84.5v0.5v0.5v0v1v0v1q8 5 18 15t18 23q-5 -3 -17 -7t-25 -5q8 4 18 16.5t13 23.5v0zM513 -27q-99 0 -186 37.5t-152 102.5t-102.5 151.5t-37.5 185.5t37.5 186t102.5 151.5t152 102
t186 37.5q98 0 185 -37.5t152 -102t102.5 -151.5t37.5 -186t-37.5 -185.5t-102.5 -151.5t-152 -102.5t-185 -37.5zM513 894q-92 0 -173 -34.5t-141.5 -95t-95.5 -141.5t-35 -173t35 -173t95.5 -141t141.5 -95t173 -35q91 0 172 35t141.5 95t95.5 141t35 173t-35 173
t-95.5 141.5t-141.5 95t-172 34.5v0z" />
    <glyph glyph-name="uniE60D" unicode="&#xe60d;" 
d="M617 571q-31 0 -54.5 -20t-33.5 -58q11 5 27.5 4.5t17.5 -19.5q2 -19 -19 -55t-34 -36t-22 41.5t-13 66.5q-3 26 -11.5 49t-32.5 23t-52.5 -28t-50.5 -45l15 -21l12 8.5t17 7.5q15 -4 27 -48t18 -67q7 -22 18 -56.5t43 -34.5q25 0 56.5 27t59 63.5t46 74t18.5 58.5
q0 26 -10 45.5t-42 19.5v0zM513 -27q-99 0 -186 37.5t-152 102.5t-102.5 151.5t-37.5 185.5t37.5 186t102.5 151.5t152 102t186 37.5q98 0 185 -37.5t152 -102t102.5 -151.5t37.5 -186t-37.5 -185.5t-102.5 -151.5t-152 -102.5t-185 -37.5zM513 894q-92 0 -173 -34.5
t-141.5 -95t-95.5 -141.5t-35 -173t35 -173t95.5 -141t141.5 -95t173 -35q91 0 172 35t141.5 95t95.5 141t35 173t-35 173t-95.5 141.5t-141.5 95t-172 34.5v0z" />
    <glyph glyph-name="uniE60E" unicode="&#xe60e;" 
d="M513 -27q-99 0 -186 37.5t-152 102.5t-102.5 151.5t-37.5 185.5t37.5 186t102.5 151.5t152 102t186 37.5q98 0 185 -37.5t152 -102t102.5 -151.5t37.5 -186t-37.5 -185.5t-102.5 -151.5t-152 -102.5t-185 -37.5zM513 894q-92 0 -173 -34.5t-141.5 -95t-95.5 -141.5
t-35 -173t35 -173t95.5 -141t141.5 -95t173 -35q91 0 172 35t141.5 95t95.5 141t35 173t-35 173t-95.5 141.5t-141.5 95t-172 34.5v0zM436 280l245 149l-245 148v-297z" />
    <glyph glyph-name="uniE60F" unicode="&#xe60f;" 
d="M513 -27q-99 0 -186 37.5t-152 102.5t-102.5 151.5t-37.5 185.5t37.5 186t102.5 151.5t152 102t186 37.5q98 0 185 -37.5t152 -102t102.5 -151.5t37.5 -186t-37.5 -185.5t-102.5 -151.5t-152 -102.5t-185 -37.5zM513 894q-92 0 -173 -34.5t-141.5 -95t-95.5 -141.5
t-35 -173t35 -173t95.5 -141t141.5 -95t173 -35q91 0 172 35t141.5 95t95.5 141t35 173t-35 173t-95.5 141.5t-141.5 95t-172 34.5v0zM389 629q-18 0 -30 -11t-12 -26t12 -26.5t30 -11.5q17 0 29 11.5t12 26.5t-12 26t-29 11zM358 522h63v-213h-63v213zM606 529
q-23 0 -43 -8.5t-35 -27.5v30h-64v-213h64v115q0 18 14.5 33t35.5 15t28 -14.5t7 -33.5v-115h63v121q1 62 -23 80t-47 18v0z" />
    <glyph glyph-name="uniE610" unicode="&#xe610;" 
d="M513 -27q-99 0 -186 37.5t-152 102.5t-102.5 151.5t-37.5 185.5t37.5 186t102.5 151.5t152 102t186 37.5q98 0 185 -37.5t152 -102t102.5 -151.5t37.5 -186t-37.5 -185.5t-102.5 -151.5t-152 -102.5t-185 -37.5zM513 894q-92 0 -173 -34.5t-141.5 -95t-95.5 -141.5
t-35 -173t35 -173t95.5 -141t141.5 -95t173 -35q91 0 172 35t141.5 95t95.5 141t35 173t-35 173t-95.5 141.5t-141.5 95t-172 34.5v0zM440 534h-74l43 -77l-58 -97h73l60 96zM590 595l-116 -204l75 -133h79l-76 133l117 204h-79z" />
    <glyph glyph-name="uniE611" unicode="&#xe611;" 
d="M513 -34q-101 0 -189 38t-153.5 104t-103.5 154t-38 188t38 188t103.5 154t153.5 104t189 38q100 0 188 -38t153.5 -104t103.5 -154t38 -188t-38 -188t-103.5 -154t-153.5 -104t-188 -38zM513 888q-91 0 -170.5 -34.5t-139 -94t-94 -139t-34.5 -170.5q0 -90 34.5 -170
t93.5 -139.5t139 -94t171 -34.5q90 0 170 34.5t139 94t93.5 139.5t34.5 170t-34.5 170t-93.5 139.5t-139 94t-170 34.5zM485 642v-166h-166v-56h166v-166h55v166h166v56h-166v166h-55z" />
    <glyph glyph-name="uniE612" unicode="&#xe612;" 
d="M513 -34q-101 0 -189 38t-153.5 104t-103.5 154t-38 188t38 188t103.5 154t153.5 104t189 38q100 0 188 -38t153.5 -104t103.5 -154t38 -188t-38 -188t-103.5 -154t-153.5 -104t-188 -38zM513 888q-91 0 -170.5 -34.5t-139 -94t-94 -139t-34.5 -170.5q0 -90 34.5 -170
t93.5 -139.5t139 -94t171 -34.5q90 0 170 34.5t139 94t93.5 139.5t34.5 170t-34.5 170t-93.5 139.5t-139 94t-170 34.5zM318 476h388v-56h-388v56v0z" />
    <glyph glyph-name="uniE613" unicode="&#xe613;" 
d="M312 371h68v117l-52 -18l-19 39l87 35h42v-173h59v-42h-185v42zM733 435q0 -49 -29.5 -80t-76.5 -31q-48 0 -77.5 31t-29.5 80q0 50 29.5 80.5t77.5 30.5q47 0 76.5 -30.5t29.5 -80.5zM675 435q0 29 -12 47.5t-36 18.5t-36 -18.5t-12 -47.5q0 -28 12 -47t36 -19t36 19
t12 47zM513 -29q-100 0 -187 37.5t-152 102.5t-103 152.5t-38 186.5t38 186.5t103 152.5t152 102.5t187 37.5q99 0 186 -37.5t152 -102.5t103 -152.5t38 -186.5t-38 -186.5t-103 -152.5t-152 -102.5t-186 -37.5zM513 892q-92 0 -172.5 -34.5t-140.5 -94.5t-95 -141t-35 -172
t35 -171.5t95 -141t140.5 -95t172.5 -34.5q91 0 171.5 34.5t140.5 95t95 141t35 171.5t-35 172t-95 141t-140.5 94.5t-171.5 34.5v0z" />
    <glyph glyph-name="uniE614" unicode="&#xe614;" 
d="M301 329v10q-4 80 65.5 93.5t69.5 44.5q0 11 -9.5 18t-27.5 7q-20 0 -39 -7.5t-35 -19.5l-27 38q21 14 46.5 23.5t54.5 9.5q45 0 69.5 -18.5t24.5 -47.5q0 -54 -60 -67t-71 -40h128v-44h-189v0zM737 436q0 -50 -29.5 -81t-77.5 -31q-47 0 -76.5 31t-29.5 81
q0 49 29.5 79.5t76.5 30.5q48 0 77.5 -30.5t29.5 -79.5zM678 436q0 28 -12 46.5t-35 18.5q-24 0 -36 -18.5t-12 -46.5q0 -29 12 -48t36 -19t35.5 19t11.5 48zM513 -29q-100 0 -187 37.5t-152 102.5t-103 152.5t-38 186.5t38 186.5t103 152.5t152 102.5t187 37.5
q99 0 186 -37.5t152 -102.5t103 -152.5t38 -186.5t-38 -186.5t-103 -152.5t-152 -102.5t-186 -37.5zM513 892q-92 0 -172.5 -34.5t-140.5 -94.5t-95 -141t-35 -172t35 -171.5t95 -141t140.5 -95t172.5 -34.5q91 0 171.5 34.5t140.5 95t95 141t35 171.5t-35 172t-95 141
t-140.5 94.5t-171.5 34.5v0z" />
    <glyph glyph-name="uniE615" unicode="&#xe615;" 
d="M307 338q15 -9 32.5 -14t34.5 -5q24 0 39 12.5t15 33.5q0 18 -12.5 29t-32.5 11q-10 0 -22.5 -3t-25.5 -8l-32 20l5 128h160v-42h-109l-3 -62q10 4 22.5 6.5t24.5 2.5q33 0 57.5 -21t24.5 -60q0 -44 -33.5 -68.5t-78.5 -24.5q-26 0 -47.5 6.5t-40.5 16.5l22 42v0z
M626 546q46 0 78.5 -29.5t32.5 -80.5q0 -52 -33 -81.5t-78 -29.5q-46 0 -78.5 29.5t-32.5 81.5q0 51 33 80.5t78 29.5v0zM626 371q24 0 38.5 18t14.5 47q0 28 -14.5 46t-38.5 18t-38.5 -18t-14.5 -46q0 -29 14.5 -47t38.5 -18zM513 -29q-100 0 -187 37.5t-152 102.5
t-103 152.5t-38 186.5t38 186.5t103 152.5t152 102.5t187 37.5q99 0 186 -37.5t152 -102.5t103 -152.5t38 -186.5t-38 -186.5t-103 -152.5t-152 -102.5t-186 -37.5zM513 892q-92 0 -172.5 -34.5t-140.5 -94.5t-95 -141t-35 -172t35 -171.5t95 -141t140.5 -95t172.5 -34.5
q91 0 171.5 34.5t140.5 95t95 141t35 171.5t-35 172t-95 141t-140.5 94.5t-171.5 34.5v0z" />
    <glyph glyph-name="uniE616" unicode="&#xe616;" 
d="M202 381h65v111l-50 -18l-18 37l83 33h39v-163h56v-41h-175v41v0zM598 441q0 -47 -28 -76t-72 -29q-45 0 -73 29t-28 76t28 76t73 29q44 0 72 -29t28 -76zM543 441q0 27 -11.5 44.5t-33.5 17.5q-23 0 -34.5 -17.5t-11.5 -44.5t11.5 -45t34.5 -18q22 0 33.5 18t11.5 45z
M730 546q43 0 73.5 -28.5t30.5 -76.5t-30.5 -76.5t-73.5 -28.5t-74 28.5t-31 76.5t31 76.5t74 28.5zM730 380q22 0 36 17t14 44t-14 44t-36 17q-23 0 -37 -17t-14 -44t14 -44t37 -17zM512 -29q-99 0 -186.5 37.5t-152.5 102.5t-102.5 152.5t-37.5 186.5t37.5 186.5
t102.5 152.5t152.5 102.5t186.5 37.5t186.5 -37.5t152.5 -102.5t102.5 -152.5t37.5 -186.5t-37.5 -186.5t-102.5 -152.5t-152.5 -102.5t-186.5 -37.5v0zM512 892q-91 0 -171.5 -34.5t-141 -94.5t-95 -141t-34.5 -172t34.5 -171.5t95 -141t141 -95t171.5 -34.5t171.5 34.5
t141 95t95 141t34.5 171.5t-34.5 172t-95 141t-141 94.5t-171.5 34.5v0z" />
    <glyph glyph-name="uniE617" unicode="&#xe617;" 
d="M355 572h65l96 -264h-61l-17 50h-101l-16 -50h-61l95 264v0zM352 402h71l-35 107h-1zM510 572h62l65 -197h1l65 197h62l-95 -264h-65zM513 -29q-100 0 -187 37.5t-152 102.5t-103 152.5t-38 186.5t38 186.5t103 152.5t152 102.5t187 37.5q99 0 186 -37.5t152 -102.5
t103 -152.5t38 -186.5t-38 -186.5t-103 -152.5t-152 -102.5t-186 -37.5zM513 892q-92 0 -172.5 -34.5t-140.5 -94.5t-95 -141t-35 -172t35 -171.5t95 -141t140.5 -95t172.5 -34.5q91 0 171.5 34.5t140.5 95t95 141t35 171.5t-35 172t-95 141t-140.5 94.5t-171.5 34.5v0z" />
    <glyph glyph-name="uniE618" unicode="&#xe618;" 
d="M419 576q28 0 51.5 -8.5t44.5 -25.5l-31 -39q-13 11 -28.5 17.5t-34.5 6.5q-37 0 -59 -23.5t-22 -62.5q0 -41 22 -65.5t59 -24.5q20 0 36 7.5t29 20.5l34 -36q-21 -20 -46.5 -30t-56.5 -10q-60 0 -97.5 39t-37.5 99q0 59 38.5 97t98.5 38zM558 572h57v-215h131v-49h-188
v264zM512 -29q-99 0 -186.5 37.5t-152.5 102.5t-102.5 152.5t-37.5 186.5t37.5 186.5t102.5 152.5t152.5 102.5t186.5 37.5t186.5 -37.5t152.5 -102.5t102.5 -152.5t37.5 -186.5t-37.5 -186.5t-102.5 -152.5t-152.5 -102.5t-186.5 -37.5v0zM512 892q-91 0 -171.5 -34.5
t-141 -94.5t-95 -141t-34.5 -172t34.5 -171.5t95 -141t141 -95t171.5 -34.5t171.5 34.5t141 95t95 141t34.5 171.5t-34.5 172t-95 141t-141 94.5t-171.5 34.5v0z" />
    <glyph glyph-name="uniE619" unicode="&#xe619;" 
d="M365 577q27 0 51 -9t44 -25l-30 -40q-14 11 -29.5 18t-34.5 7q-37 0 -59 -23.5t-22 -63.5t22 -64.5t59 -24.5q20 0 36 7t29 20l34 -36q-21 -20 -46 -29.5t-57 -9.5q-60 0 -97.5 38.5t-37.5 98.5q0 59 38.5 97.5t99.5 38.5v0zM503 572h58l79 -112l80 112h57v-264h-55v182
l-82 -113l-82 113v-182h-55v264v0zM513 -29q-100 0 -187 37.5t-152 102.5t-103 152.5t-38 186.5t38 186.5t103 152.5t152 102.5t187 37.5q99 0 186 -37.5t152 -102.5t103 -152.5t38 -186.5t-38 -186.5t-103 -152.5t-152 -102.5t-186 -37.5zM513 892q-92 0 -172.5 -34.5
t-140.5 -94.5t-95 -141t-35 -172t35 -171.5t95 -141t140.5 -95t172.5 -34.5q91 0 171.5 34.5t140.5 95t95 141t35 171.5t-35 172t-95 141t-140.5 94.5t-171.5 34.5v0z" />
    <glyph glyph-name="uniE61A" unicode="&#xe61a;" 
d="M266 570h86q71 0 108 -34.5t37 -96.5q0 -63 -36 -98t-109 -35h-86v264v0zM357 352q41 0 62 23t21 64q0 39 -21.5 62t-61.5 23h-34v-171h34v-1zM538 570h87q70 0 107.5 -34.5t37.5 -96.5q0 -63 -36 -98t-109 -35h-86q-1 0 -1 41.5v90.5v90.5v41.5v0zM629 352q42 0 63 23
t21 64q0 39 -21.5 62t-62.5 23h-34v-171h34v-1zM513 -29q-100 0 -187 37.5t-152 102.5t-103 152.5t-38 186.5t38 186.5t103 152.5t152 102.5t187 37.5q99 0 186 -37.5t152 -102.5t103 -152.5t38 -186.5t-38 -186.5t-103 -152.5t-152 -102.5t-186 -37.5zM513 892
q-92 0 -172.5 -34.5t-140.5 -94.5t-95 -141t-35 -172t35 -171.5t95 -141t140.5 -95t172.5 -34.5q91 0 171.5 34.5t140.5 95t95 141t35 171.5t-35 172t-95 141t-140.5 94.5t-171.5 34.5v0z" />
    <glyph glyph-name="uniE61B" unicode="&#xe61b;" 
d="M252 570h57l80 -113l79 113h57v-264h-54v182l-82 -113l-83 113v-182h-54v41v90.5v91v41.5zM584 570h193v-50h-135v-58h120v-44h-120v-62h136v-50h-193v264h-1zM512 -29q-99 0 -186.5 37.5t-152.5 102.5t-102.5 152.5t-37.5 186.5t37.5 186.5t102.5 152.5t152.5 102.5
t186.5 37.5t186.5 -37.5t152.5 -102.5t102.5 -152.5t37.5 -186.5t-37.5 -186.5t-102.5 -152.5t-152.5 -102.5t-186.5 -37.5v0zM512 892q-91 0 -171.5 -34.5t-141 -94.5t-95 -141t-34.5 -172t34.5 -171.5t95 -141t141 -95t171.5 -34.5t171.5 34.5t141 95t95 141t34.5 171.5
t-34.5 172t-95 141t-141 94.5t-171.5 34.5v0z" />
    <glyph glyph-name="uniE61C" unicode="&#xe61c;" 
d="M181 558h104q54 0 75 -25t21 -54q0 -30 -21 -55t-74 -25h-51v-91h-54v250v0zM285 441q22 0 32.5 10.5t10.5 26.5t-10.5 26.5t-32.5 10.5h-50v-74h50zM415 558h82q66 0 101.5 -33t35.5 -91q0 -59 -34 -92.5t-103 -33.5h-82v250v0zM501 352q39 0 59 22t20 60q0 36 -20.5 58
t-58.5 22h-33v-162h33v0zM672 558h179v-48h-124v-58h107v-44h-107v-100h-55v250zM512 -29q-99 0 -186.5 37.5t-152.5 102.5t-102.5 152.5t-37.5 186.5t37.5 186.5t102.5 152.5t152.5 102.5t186.5 37.5t186.5 -37.5t152.5 -102.5t102.5 -152.5t37.5 -186.5t-37.5 -186.5
t-102.5 -152.5t-152.5 -102.5t-186.5 -37.5v0zM512 892q-91 0 -171.5 -34.5t-141 -94.5t-95 -141t-34.5 -172t34.5 -171.5t95 -141t141 -95t171.5 -34.5t171.5 34.5t141 95t95 141t34.5 171.5t-34.5 172t-95 141t-141 94.5t-171.5 34.5v0z" />
    <glyph glyph-name="uniE900" unicode="&#xe900;" 
d="M512 927q-99 0 -185.5 -37.5t-151.5 -102t-102.5 -151.5t-37.5 -186t37.5 -185.5t102.5 -151.5t151.5 -102.5t185.5 -37.5t185.5 37.5t151.5 102.5t102.5 151.5t37.5 185.5t-37.5 186t-102.5 151.5t-151.5 102t-185.5 37.5v0zM690 277q0 -8 -5.5 -14t-14.5 -6
q-70 0 -131.5 26.5t-107 72.5t-72 107.5t-26.5 130.5q0 8 5.5 14t14.5 6h69q8 0 14 -5.5t6 -14.5q0 -18 3 -36t9 -34q1 -6 0 -11t-5 -9l-44 -44q21 -42 55 -75.5t76 -55.5l44 44q4 4 9.5 5t10.5 -1q16 -5 34 -8t36 -3q8 0 14 -5.5t6 -14.5v-69z" />
    <glyph glyph-name="uniE901" unicode="&#xe901;" 
d="M513 927q-99 0 -186 -37.5t-152 -102t-102.5 -151.5t-37.5 -186t37.5 -185.5t102.5 -151.5t152 -102.5t186 -37.5q98 0 185 37.5t152 102.5t102.5 151.5t37.5 185.5t-37.5 186t-102.5 151.5t-152 102t-185 37.5v0zM513 279l-127 127l21 21l91 -91v292h29v-292l91 91
l21 -21z" />
    <glyph glyph-name="uniE902" unicode="&#xe902;" 
d="M356 555v-40l159 -99l158 99v40l-158 -99zM512 927q-99 0 -185.5 -37.5t-151.5 -102t-102.5 -151.5t-37.5 -186t37.5 -185.5t102.5 -151.5t151.5 -102.5t185.5 -37.5t185.5 37.5t151.5 102.5t102.5 151.5t37.5 185.5t-37.5 186t-102.5 151.5t-151.5 102t-185.5 37.5v0z
M714 316q0 -16 -12 -28t-28 -12h-318q-16 0 -28 12t-12 28v238q0 17 11.5 28.5t28.5 11.5h317q17 0 28.5 -11.5t12.5 -27.5v-239z" />
    <glyph glyph-name="uniE903" unicode="&#xe903;" 
d="M513 927q-99 0 -186 -37.5t-152 -102t-102.5 -151.5t-37.5 -186t37.5 -185.5t102.5 -151.5t152 -102.5t186 -37.5q98 0 185 37.5t152 102.5t102.5 151.5t37.5 185.5t-37.5 186t-102.5 151.5t-152 102t-185 37.5v0zM351 360l58 97l-43 77h74l44 -78l-60 -96h-73zM628 258
h-79l-75 133l116 204h79l-117 -204l76 -133v0z" />
    <glyph glyph-name="uniE908" unicode="&#xe908;" 
d="M511 432q23 0 39 16t16 39t-16 39.5t-39 16.5t-39 -16.5t-16 -39.5t16 -39t39 -16v0zM511 397q-28 0 -69.5 -14.5t-41.5 -42.5v-18h222v18q0 28 -41.5 42.5t-69.5 14.5zM511 927q-99 0 -186 -37.5t-151.5 -102t-102 -151.5t-37.5 -186t37.5 -185.5t102 -151.5
t151.5 -102.5t186 -37.5t185.5 37.5t151.5 102.5t102.5 151.5t37.5 185.5t-37.5 186t-102.5 151.5t-151.5 102t-185.5 37.5v0zM677 303q0 -15 -11 -26t-26 -11h-258q-15 0 -26 11t-11 26v258q0 16 11 26.5t26 10.5h18v37h37v-37h148v37h37v-37h18q15 0 26 -10.5t11 -26.5
v-258z" />
    <glyph glyph-name="uniE90A" unicode="&#xe90a;" 
d="M513 927q-99 0 -186 -37.5t-152 -102t-102.5 -151.5t-37.5 -186t37.5 -185.5t102.5 -151.5t152 -102.5t186 -37.5q98 0 185 37.5t152 102.5t102.5 151.5t37.5 185.5t-37.5 186t-102.5 151.5t-152 102t-185 37.5v0zM421 309h-63v213h63v-213zM389 554q-18 0 -30 11.5
t-12 26.5t12 26t30 11q17 0 29 -11t12 -26t-12 -26.5t-29 -11.5zM676 310h-63v115q0 19 -7 33.5t-28 14.5t-35.5 -15t-14.5 -33v-115h-64v213h64v-30q15 19 35 27.5t43 8.5t47 -18t23 -80v-121v0z" />
  </font>
</defs>
</svg>
